<?xml version="1.0" standalone="no"?>
<!DOCTYPE svg PUBLIC "-//W3C//DTD SVG 20010904//EN"
 "http://www.w3.org/TR/2001/REC-SVG-20010904/DTD/svg10.dtd">
<svg version="1.0" xmlns="http://www.w3.org/2000/svg"
 width="72.000000pt" height="72.000000pt" viewBox="0 0 72.000000 72.000000"
 preserveAspectRatio="xMidYMid meet">
<metadata>
Created by potrace 1.14, written by Peter Selinger 2001-2017
</metadata>
<g transform="translate(0.000000,72.000000) scale(0.100000,-0.100000)"
fill="#000000" stroke="none">
<path d="M300 601 c0 -4 -25 -11 -56 -14 -64 -7 -108 -31 -101 -55 2 -10 6
-23 8 -31 3 -9 -15 -22 -51 -36 -55 -21 -55 -21 -52 -61 2 -21 14 -55 27 -74
16 -23 24 -49 24 -75 0 -47 6 -76 20 -104 14 -26 14 -31 -3 -31 -8 0 -18 -5
-22 -12 -4 -6 -3 -8 3 -5 6 4 35 9 64 11 30 2 99 15 155 28 106 26 123 25 163
-12 13 -13 26 -19 30 -13 8 14 68 32 113 35 28 1 35 5 27 14 -6 7 -12 36 -14
66 -6 71 -9 86 -23 100 -7 7 -12 17 -12 24 0 7 -5 14 -11 16 -7 2 -13 27 -14
56 -1 29 -5 55 -8 59 -4 3 -7 14 -7 23 0 27 -24 41 -82 47 -40 4 -57 11 -71
29 -15 19 -28 24 -63 24 -24 0 -44 -4 -44 -9z m60 -81 c0 -5 -9 -10 -19 -10
-11 0 -23 5 -26 10 -4 6 5 10 19 10 14 0 26 -4 26 -10z m75 -160 c-3 -5 -1
-10 4 -10 6 0 11 -5 11 -11 0 -18 -55 -6 -58 14 -3 13 3 17 23 17 15 0 24 -4
20 -10z m-109 -49 c0 -16 -4 -17 -28 -9 -15 6 -28 13 -28 17 0 4 13 8 28 9 21
1 28 -2 28 -17z"/>
<path d="M390 135 c0 -3 11 -18 24 -32 14 -15 23 -30 20 -35 -3 -4 -1 -8 4 -8
6 0 13 -7 16 -16 5 -12 3 -14 -6 -7 -8 5 -33 5 -68 -3 -54 -11 -54 -14 -3 -30
7 -2 27 2 44 8 24 8 37 8 50 -1 16 -10 16 -4 -6 46 -14 32 -33 64 -42 71 -18
13 -33 16 -33 7z"/>
<path d="M620 129 c0 -5 -4 -8 -9 -4 -5 3 -30 0 -56 -7 -43 -12 -46 -14 -39
-38 4 -14 8 -35 8 -47 1 -11 4 -19 8 -17 4 2 9 0 13 -6 3 -5 44 -10 91 -10
l84 0 0 43 c0 45 -23 71 -65 73 -11 0 -19 6 -17 12 1 7 -2 12 -8 12 -5 0 -10
-5 -10 -11z m40 -65 c0 -8 -19 -13 -24 -6 -3 5 1 9 9 9 8 0 15 -2 15 -3z"/>
<path d="M50 100 c0 -5 5 -10 10 -10 6 0 10 5 10 10 0 6 -4 10 -10 10 -5 0
-10 -4 -10 -10z"/>
<path d="M330 102 c0 -13 23 -32 39 -32 11 0 9 5 -7 20 -23 21 -32 25 -32 12z"/>
<path d="M107 65 c-63 -14 -92 -29 -36 -19 26 4 30 3 19 -5 -8 -6 -10 -11 -5
-11 6 0 1 -7 -9 -15 -18 -14 -17 -15 23 -15 40 0 42 2 30 17 -10 11 -10 14 -1
9 7 -4 12 -1 12 8 0 9 4 16 9 16 5 0 11 7 15 15 3 8 4 15 3 14 -1 -1 -28 -7
-60 -14z"/>
<path d="M8 33 c7 -3 16 -2 19 1 4 3 -2 6 -13 5 -11 0 -14 -3 -6 -6z"/>
</g>
</svg>
